Coordinates
version=1
nRows=11
nColumns=63
inDegrees=yes

Units are S.I. units (second, meters, Newtons, ...)
If the header above contains a line with 'inDegrees', this indicates whether rotational values are in degrees (yes) or radians (no).

endheader
time	pelvis_tilt	pelvis_list	pelvis_rotation	pelvis_tx	pelvis_ty	pelvis_tz	hip_flexion_r	hip_adduction_r	hip_rotation_r	knee_angle_r	knee_angle_r_beta	ankle_angle_r	subtalar_angle_r	mtp_angle_r	hip_flexion_l	hip_adduction_l	hip_rotation_l	knee_angle_l	knee_angle_l_beta	ankle_angle_l	subtalar_angle_l	mtp_angle_l	L5_S1_Flex_Ext	L5_S1_Lat_Bending	L5_S1_axial_rotation	L4_L5_Flex_Ext	L4_L5_Lat_Bending	L4_L5_axial_rotation	L3_L4_Flex_Ext	L3_L4_Lat_Bending	L3_L4_axial_rotation	L2_L3_Flex_Ext	L2_L3_Lat_Bending	L2_L3_axial_rotation	L1_L2_Flex_Ext	L1_L2_Lat_Bending	L1_L2_axial_rotation	L1_T12_Flex_Ext	L1_T12_Lat_Bending	L1_T12_axial_rotation	Abs_r3	Abs_r2	Abs_r1	Abs_t1	Abs_t2	neck_flexion	neck_bending	neck_rotation	arm_flex_r	arm_add_r	arm_rot_r	elbow_flex_r	pro_sup_r	wrist_flex_r	wrist_dev_r	arm_flex_l	arm_add_l	arm_rot_l	elbow_flex_l	pro_sup_l	wrist_flex_l	wrist_dev_l
      0.00800000	    -63.18355437	     -3.52719062	     -0.73562137	     -0.30719485	      1.13239803	      0.04396174	    120.37073840	     -5.97218462	     -5.43836155	     86.18263154	      1.50417068	     27.05626328	     -3.52590473	      0.00000000	     94.70501319	     -4.99234074	      1.65845432	     59.75106942	      1.04285289	     -0.16664488	     -2.31036308	      0.00000000	     -0.09819662	      1.00985942	      0.23127923	     -0.18236093	      1.34311302	      0.24573418	     -0.16132722	      2.45537219	      0.24573418	     -0.11222891	      2.45537219	      0.20236933	     -0.09118538	      2.05930532	      0.18791438	     -0.05610955	      1.56427224	      0.17345942	     -0.70140861	     11.42373170	      1.28630571	      0.00000000	      0.00000000	      0.00000000	      0.00000000	      0.00000002	     64.89899805	     -9.75493214	      3.56925142	     43.08037576	     67.82590400	      0.00000000	      2.65157005	     60.59792570	     -7.88761095	      1.37374458	     45.20395199	     67.15793401	      0.00000000	      2.65157005
      0.01700000	    -63.31404609	     -3.17652407	      0.15603953	     -0.30813802	      1.13372179	      0.04146704	    118.44309592	     -6.71164829	     -5.64798312	     80.65227418	      1.40764773	     27.00228059	     -3.78473509	      0.00000000	     95.93583128	     -3.84519382	      1.46995486	     63.97047799	      1.11649546	      0.38445089	     -4.88554743	      0.00000000	     -0.10076103	      0.98470557	      0.07865312	     -0.18712331	      1.30965841	      0.08356894	     -0.16554030	      2.39421312	      0.08356894	     -0.11515978	      2.39421312	      0.06882148	     -0.09356670	      2.00801160	      0.06390566	     -0.05757485	      1.52530893	      0.05898984	     -0.71972598	     11.13918635	      0.43744504	      0.00000000	      0.00000000	      0.00000000	      0.00000000	      0.00000001	     64.98466924	     -9.91940635	      4.05286147	     43.59827614	     67.65040480	      0.00000000	      2.73471289	     60.95176501	     -7.74734725	      1.47748211	     45.29922405	     66.95744749	      0.00000000	      2.73471289
      0.02500000	    -63.35891155	     -2.96928673	      0.60363977	     -0.30825531	      1.13401548	      0.04088656	    117.74421225	     -7.00219803	     -5.49673857	     78.87653153	      1.37665518	     26.74146814	     -3.72756620	      0.00000000	     96.43867121	     -3.31501705	      1.47054392	     65.35522483	      1.14066386	      0.60925480	     -5.00054117	      0.00000000	     -0.09894532	      0.94978521	     -0.00730358	     -0.18375136	      1.26321434	     -0.00776006	     -0.16255727	      2.30930777	     -0.00776006	     -0.11308461	      2.30930777	     -0.00639064	     -0.09188063	      1.93680201	     -0.00593416	     -0.05653736	      1.47121730	     -0.00547769	     -0.70675655	     10.74416030	     -0.04062034	      0.00000000	      0.00000000	      0.00000000	      0.00000000	      0.00000001	     64.78350710	     -9.97974835	      4.10684028	     43.95313755	     67.19928243	      0.00000000	      2.81681462	     61.03946922	     -7.74673097	      1.46602084	     45.36518541	     66.50893916	      0.00000000	      2.81681462
      0.03300000	    -63.41756856	     -2.89873770	      0.80818436	     -0.30844619	      1.13450791	      0.04053980	    116.76056043	     -7.08935716	     -5.66703893	     76.58765389	      1.33670673	     26.47828485	     -3.94948918	      0.00000000	     97.13890588	     -3.04298510	      1.57527168	     67.05532520	      1.17033621	      0.57376518	     -5.24530908	      0.00000000	     -0.09969630	      0.92980687	     -0.02845908	     -0.18514601	      1.23664314	     -0.03023777	     -0.16379106	      2.26073242	     -0.03023777	     -0.11394291	      2.26073242	     -0.02490169	     -0.09257799	      1.89606217	     -0.02312300	     -0.05696647	      1.44027084	     -0.02134431	     -0.71212073	     10.51816126	     -0.15828086	      0.00000000	      0.00000000	      0.00000000	      0.00000000	      0.00000001	     64.64308164	    -10.21382949	      4.14530011	     44.25665433	     66.66665153	      0.00000000	      2.92645489	     61.29240260	     -7.57833602	      1.66795636	     45.11781900	     66.01170780	      0.00000000	      2.92645489
      0.04200000	    -63.44585211	     -2.68303060	      1.44954881	     -0.30867091	      1.13493357	      0.03979804	    115.78241814	     -7.52179655	     -5.47817769	     74.30814416	      1.29692178	     25.76388153	     -3.85900040	      0.00000000	     97.85502880	     -2.33956703	      1.52823475	     68.89365565	      1.20242112	      0.88496074	     -5.35510156	      0.00000000	     -0.10173118	      0.88722488	     -0.14330522	     -0.18892497	      1.18000909	     -0.15226180	     -0.16713415	      2.15719857	     -0.15226180	     -0.11626857	      2.15719857	     -0.12539207	     -0.09446757	      1.80922897	     -0.11643549	     -0.05812920	      1.37431134	     -0.10747892	     -0.72665564	     10.03646527	     -0.79702065	      0.00000000	      0.00000000	      0.00000000	      0.00000000	      0.00000001	     64.48353225	    -10.33120524	      4.13057978	     44.51440189	     66.63753726	      0.00000000	      2.93574891	     61.49007924	     -7.54615312	      1.71647861	     45.13115230	     65.99526847	      0.00000000	      2.93574891
      0.05000000	    -63.52641973	     -2.72698272	      1.46537403	     -0.30881380	      1.13544276	      0.03972617	    114.44945663	     -7.42611066	     -5.94984378	     71.42557189	      1.24661140	     25.25823881	     -4.39058638	      0.00000000	     98.87865057	     -2.26155575	      1.84954766	     71.17027318	      1.24215560	      0.95545703	     -5.23177461	      0.00000000	     -0.10099821	      0.87958268	     -0.12015664	     -0.18756378	      1.16984496	     -0.12766643	     -0.16592996	      2.13861733	     -0.12766643	     -0.11543085	      2.13861733	     -0.10513706	     -0.09378694	      1.79364500	     -0.09762727	     -0.05771038	      1.36247357	     -0.09011748	     -0.72142012	      9.95001518	     -0.66827517	      0.00000000	      0.00000000	      0.00000000	      0.00000000	      0.00000001	     64.23733927	    -10.62655736	      3.94146233	     45.03176078	     66.49320909	      0.00000000	      2.98007302	     61.67731881	     -7.36014127	      2.09500162	     44.98288975	     65.93977579	      0.00000000	      2.98007302
      0.05800000	    -63.61802916	     -2.64257237	      1.86823135	     -0.30908703	      1.13600867	      0.03932333	    113.15712850	     -7.58910731	     -5.99335441	     68.55377886	      1.19648916	     24.40451892	     -4.69399544	      0.00000000	     99.90701182	     -1.80248434	      2.04446119	     73.40716912	      1.28119680	      1.22016825	     -5.08064513	      0.00000000	     -0.09641400	      0.85390988	     -0.18719340	     -0.17905044	      1.13570013	     -0.19889299	     -0.15839856	      2.07619647	     -0.19889299	     -0.11019156	      2.07619647	     -0.16379422	     -0.08953004	      1.74129302	     -0.15209464	     -0.05509096	      1.32270640	     -0.14039505	     -0.68867556	      9.65959929	     -1.04111353	      0.00000000	      0.00000000	      0.00000000	      0.00000000	      0.00000001	     64.04846045	    -10.74163706	      3.79786497	     45.32039181	     66.39511791	      0.00000000	      3.00963943	     61.87014609	     -7.31655240	      2.30399006	     44.90835654	     65.89823041	      0.00000000	      3.00963943
      0.06700000	    -63.67465297	     -2.59263636	      2.20322645	     -0.30931832	      1.13659631	      0.03900889	    111.74186599	     -7.73314709	     -6.24390426	     65.60484731	      1.14502059	     23.31931866	     -5.08467317	      0.00000000	    101.00170463	     -1.44043418	      2.24465251	     75.80558750	      1.32305709	      1.55350013	     -4.84892972	      0.00000000	     -0.09725077	      0.83308271	     -0.23616317	     -0.18060441	      1.10800001	     -0.25092337	     -0.15977329	      2.02555731	     -0.25092337	     -0.11114791	      2.02555731	     -0.20664278	     -0.09030707	      1.69882227	     -0.19188258	     -0.05556909	      1.29044512	     -0.17712238	     -0.69465254	      9.42399827	     -1.31346873	      0.00000000	      0.00000000	      0.00000000	      0.00000000	      0.00000001	     63.89998267	    -10.86338622	      3.55768371	     45.60407901	     66.28396425	      0.00000000	      3.03997869	     62.04632342	     -7.25083021	      2.59066659	     44.85374006	     65.86305793	      0.00000000	      3.03997869
      0.07500000	    -63.72484813	     -2.64818048	      2.44773303	     -0.30953117	      1.13707090	      0.03884146	    110.30180018	     -7.83135161	     -6.71033317	     62.71827144	      1.09464034	     21.79034588	     -5.88455927	      0.00000000	    102.21492669	     -1.17017747	      2.58968867	     78.36256178	      1.36768471	      2.13095731	     -4.41075299	      0.00000000	     -0.09716624	      0.82549949	     -0.26317898	     -0.18044742	      1.09791432	     -0.27962767	     -0.15963441	      2.00711946	     -0.27962767	     -0.11105129	      2.00711946	     -0.23028161	     -0.09022857	      1.68335856	     -0.21383292	     -0.05552079	      1.27869871	     -0.19738424	     -0.69404872	      9.33821532	     -1.46372254	      0.00000000	      0.00000000	      0.00000000	      0.00000000	      0.00000001	     63.72911476	    -10.98576935	      3.24811375	     45.83691542	     66.10398320	      0.00000000	      3.09361211	     62.19815825	     -7.18308682	      2.97199870	     44.80591736	     65.78647286	      0.00000000	      3.09361211
      0.08300000	    -63.76420834	     -2.38055464	      3.14035657	     -0.30971020	      1.13770476	      0.03823448	    108.92037961	     -8.28316416	     -6.63465145	     59.94474446	      1.04623316	     20.55053945	     -5.85556502	      0.00000000	    103.30984330	     -0.49179128	      2.49874034	     80.66033143	      1.40778836	      2.56722914	     -4.33735294	      0.00000000	     -0.09832838	      0.77742066	     -0.38388236	     -0.18260563	      1.03396947	     -0.40787501	     -0.16154369	      1.89022058	     -0.40787501	     -0.11237950	      1.89022058	     -0.33589707	     -0.09130773	      1.58531620	     -0.31190442	     -0.05618483	      1.20422460	     -0.28791177	     -0.70234976	      8.79433795	     -2.13503854	      0.00000000	      0.00000000	      0.00000000	      0.00000000	      0.00000001	     63.56724085	    -11.01118154	      3.11826156	     46.01304270	     66.04810184	      0.00000000	      3.10820283	     62.32425714	     -7.19435691	      3.12154283	     44.82176132	     65.76986620	      0.00000000	      3.10820283
      0.09200000	    -63.82909669	     -2.46258657	      3.10231671	     -0.30975319	      1.13812973	      0.03848879	    107.38273892	     -8.11267939	     -7.30569607	     56.99879047	      0.99481656	     18.72999221	     -6.79534421	      0.00000000	    104.64486038	     -0.51155687	      2.91811064	     83.27837893	      1.45348191	      3.21025258	     -3.82063472	      0.00000000	     -0.09569160	      0.77423969	     -0.35052334	     -0.17770886	      1.02973878	     -0.37243104	     -0.15721172	      1.88248637	     -0.37243104	     -0.10936593	      1.88248637	     -0.30670792	     -0.08885922	      1.57882957	     -0.28480021	     -0.05467818	      1.19929727	     -0.26289250	     -0.68351551	      8.75835418	     -1.94950564	      0.00000000	      0.00000000	      0.00000000	      0.00000000	      0.00000001	     63.37645814	    -11.10464816	      2.58592355	     46.20946691	     65.84421886	      0.00000000	      3.16151726	     62.42092366	     -7.16070963	      3.75262111	     44.86519652	     65.72068646	      0.00000000	      3.16151726
